<svg width="134" height="28" viewBox="0 0 134 28" fill="none" xmlns="http://www.w3.org/2000/svg"><rect width="134" height="28" rx="5" fill="#fd0"/><g transform="matrix(.02 0 0 .02 8 4)"><circle cx="512" cy="512" r="512" fill="#ffa401"/><path d="M347 726c-5-16 0-39 12-54 4-5 12-13 23-13h1c8 1 14 3 17 7 5 5 4 12 4 12a6 6 0 0 0 12 3s9-17 21-16 12 24 12 24a6 6 0 0 0 12 3c4-7 12-3 14-2 10 5 20 19 11 39-16 34-64 40-81 39-19-1-51-14-58-42m294-72c-8 0-14 2-17 6-4 6-4 12-4 12a6 6 0 0 1-12 4c0-1-8-18-21-17-12 2-12 24-12 24a6 6 0 0 1-12 3 7 7 0 0 0-7-3 18 18 0 0 0-7 2c-9 4-20 19-11 38 16 34 64 40 81 39 19 0 51-14 59-41 4-17-1-39-13-54-4-5-13-14-24-13m-126-12c12 0 22-23 26-36-10-5-20-12-26-20-7 7-16 14-26 19 4 14 14 37 26 37m19-88c0-7-10-13-21-13s-21 6-22 13v1c0 6 8 12 18 14h4a32 32 0 0 0 7-1h1c8-2 13-7 13-13zm-85-44a76 76 0 0 0 6-14c7-27-2-55-21-68a17 17 0 0 0-2-1c-15 0-28 21-28 47s13 46 28 46c7 0 13-4 17-10m318 85c-2 2-9 3-23-3a6 6 0 0 0-8 8c0 1 14 35 19 59a23 23 0 0 1-7 22c-21 19-41 31-56 33 1-19-5-40-17-55-10-12-22-19-35-18-11 1-20 4-26 11a28 28 0 0 0-3 5c-6-6-14-11-26-10-13 1-19 13-22 24-5-2-13-1-20 2-17 9-28 31-16 56l2 4-31 1c11-25 0-47-17-55-7-4-14-4-20-2-3-12-9-23-22-25-11-1-20 5-26 11a28 28 0 0 0-3-5c-6-7-15-11-26-12-13 0-25 6-35 18a81 81 0 0 0-17 50c-15-2-35-14-56-33a23 23 0 0 1-7-22c5-24 19-58 19-58a6 6 0 0 0-8-9c-14 6-21 5-23 3-2-3-8-20 55-114 34-51 71-98 72-98a6 6 0 0 0-5-11c-29 1-61-28-74-56-10-22-11-64 2-84 6-8 14-12 25-11 29 2 33 25 36 64l3 30c9 44 40 46 41 46a7 7 0 0 0 3 0c98-34 193 0 194 0a6 6 0 0 0 3 0c1 0 32-2 41-46l3-30c3-39 7-63 36-64 11-1 19 3 25 11 13 20 12 62 2 84-13 28-44 57-74 56a6 6 0 0 0-5 11c1 0 38 48 72 98 63 94 57 111 55 114M563 378a6 6 0 0 0 7 6c13-2 32 12 38 18a6 6 0 0 0 9-10c-3-2-27-23-49-21a6 6 0 0 0-5 7m-31 64a6 6 0 1 0 12-6c-8-15-7-24-7-24a6 6 0 0 0-13-2c0 2-1 14 8 32m-27-2a6 6 0 1 0 13 0v-30a6 6 0 1 0-13 0zm-22 4a6 6 0 0 0 8-2c9-18 8-30 8-32a6 6 0 0 0-12 2s0 9-7 24a6 6 0 0 0 3 8m-89-39a6 6 0 0 0 9 0c7-5 26-19 39-17a6 6 0 0 0 1-13c-21-3-45 18-48 21a6 6 0 0 0-1 9m-74 238 12-25a10 10 0 1 0-18-9l-12 25a10 10 0 1 0 18 9m36-33a10 10 0 0 0-13 4l-13 25a10 10 0 1 0 19 9l12-25a10 10 0 0 0-5-13m79-64c15-10 27-27 32-46 11-40-8-81-42-91s-72 15-83 56c-6 19-4 39 3 56 8 17 22 29 39 34a57 57 0 0 0 15 2c12 0 24-4 36-11m166 29a6 6 0 0 0-8-5c-2 1-6 0-10-2a68 68 0 0 1-11-6 6 6 0 0 0-7 11 83 83 0 0 0 9 5c-1 9-5 20-11 21a35 35 0 0 1-12-3 6 6 0 0 0-1 0h-1c-11-5-24-14-27-23 10-3 18-10 18-18a14 14 0 0 0 0-1c15-5 25-12 25-21 0-13-23-24-52-24s-53 11-53 24c0 7 7 14 19 18l7 3a14 14 0 0 0 0 1c0 9 9 17 22 19-4 6-17 16-28 21a6 6 0 0 0-1 0 26 26 0 0 1-9 3c-4 0-10-10-13-20a51 51 0 0 0 6-6 6 6 0 1 0-10-8 35 35 0 0 1-7 6h-1c-5 4-9 4-9 4a6 6 0 0 0-1 12h1a28 28 0 0 0 9-1c4 10 12 25 25 25a30 30 0 0 0 7-1c4 15 16 46 38 46 22-1 33-31 38-45a42 42 0 0 0 9 1h1c15 0 21-18 24-29a29 29 0 0 0 5 1 20 20 0 0 0 4 0 6 6 0 0 0 5-8m75-57c8-17 9-37 4-56s-17-36-33-46c-15-11-33-14-50-10s-31 17-39 35c-7 17-9 37-3 56 9 34 38 57 67 57a56 56 0 0 0 16-2c16-5 30-17 38-34m16 125-18-37a10 10 0 1 0-18 9l18 37a10 10 0 0 0 18-9m31-7-18-37a10 10 0 0 0-18 9l18 37a10 10 0 0 0 18-9M591 427a19 19 0 0 0-12 5c-9 7-16 23-16 42 0 15 5 28 11 37 5 6 11 9 17 9 15 0 28-21 28-46s-13-47-28-47" fill="#fff"/></g><text x="32" y="18.5" font-family="Verdana, Geneva, DejaVu Sans, sans-serif" font-size="11" font-weight="bold" fill="#000">Saweria</text></svg>